# xmcd
#
# Track frame offsets: 
#        150
#        30083
#        55866
#        78215
#        98778
#        122579
#        149670
#        172647
#        199492
#        226395
#        251875
#        276515
#        302718
#        328580
#
# Disc length: 4768 seconds
#
# Revision: 0
# Processed by: cddbd v1.5.2PL0 Copyright (c) Steve Scherf et al.
# Submitted via: ExactAudioCopy v0.99pb5
#
DISCID=be129e0e
DTITLE=Stephenie Meyer - Bis(s) zur Mittagsstunde CD02 von 11
DYEAR=2010
DGENRE=Hörbuch
TTITLE0=015 Nadelstiche 07
TTITLE1=016 Das Ende 01
TTITLE2=017 Das Ende 02
TTITLE3=018 Das Ende 03
TTITLE4=019 Das Ende 04
TTITLE5=020 Das Ende 05
TTITLE6=021 Das Ende 06
TTITLE7=022 Das Ende 07
TTITLE8=023 Das Ende 08
TTITLE9=024 Das Ende 09
TTITLE10=025 Das Ende 10
TTITLE11=026 Das Erwachen 01
TTITLE12=027 Das Erwachen 02
TTITLE13=028 Das Erwachen 03
EXTD=gelesen von Annina Braunmiller
EXTT0=
EXTT1=
EXTT2=
EXTT3=
EXTT4=
EXTT5=
EXTT6=
EXTT7=
EXTT8=
EXTT9=
EXTT10=
EXTT11=
EXTT12=
EXTT13=
PLAYORDER=
